<svg width="180" height="61" viewBox="0 0 180 61" fill="none" xmlns="http://www.w3.org/2000/svg">
<mask id="mask0" mask-type="alpha" maskUnits="userSpaceOnUse" x="0" y="0" width="54" height="51">
<path d="M19.5024 21.3443C22.639 8.79805 38.9617 5.6615 46.0771 5.6615V1.74081C36.3475 0.433918 17.3248 -1.30855 6.43327 12.1961C-3.02923 23.9289 -4.0869 45.8663 17.3242 49.2247C39.5425 52.7098 51.8843 47.6274 53.0459 43.9972L43.027 45.7396C22.9874 43.5615 16.3659 33.8905 19.5024 21.3443Z" fill="#E41151"/>
</mask>
<g mask="url(#mask0)">
<path d="M19.5024 21.3443C22.639 8.79805 38.9617 5.6615 46.0771 5.6615V1.74081C36.3475 0.433918 17.3248 -1.30855 6.43327 12.1961C-3.02923 23.9289 -4.0869 45.8663 17.3242 49.2247C39.5425 52.7098 51.8842 47.6274 53.0459 43.9972L43.027 45.7397C22.9874 43.5615 16.3659 33.8905 19.5024 21.3443Z" fill="#C72D51"/>
<path d="M30.5121 25.3995C33.6299 12.9183 49.8554 9.79796 56.9283 9.79796L56.9286 6.76099L56.8226 6.74673C47.1194 5.44215 28.308 2.91296 17.5208 16.2988C8.11472 27.9708 13.055 45.1079 34.5098 47.065C58.2279 49.2285 65.8329 42.4423 66.9876 38.8308L62.6571 38.8309C42.7369 36.664 27.3942 37.8808 30.5121 25.3995Z" fill="url(#paint0_linear)"/>
<path d="M31.6002 25.2684C34.7367 12.7222 51.0595 9.58561 58.1748 9.58561L58.1752 6.53283L58.0684 6.51849C48.3071 5.20712 29.3829 2.66477 18.531 16.1202C9.06852 27.853 14.0385 45.0794 35.6219 47.0466C59.4822 49.2213 67.1328 42.3999 68.2944 38.7696L63.938 38.7696C43.8983 36.5915 28.4636 37.8146 31.6002 25.2684Z" fill="#941632"/>
</g>
<mask id="mask1" mask-type="alpha" maskUnits="userSpaceOnUse" x="19" y="10" width="48" height="51">
<path fill-rule="evenodd" clip-rule="evenodd" d="M24.4935 25.5917C25.7718 17.5039 35.2727 10.8671 46.5916 10.1555C48.6483 10.0259 53.7581 9.9798 57.9467 10.0526C59.1585 10.0736 60.2083 10.0885 61.1177 10.1013C64.5371 10.1497 65.97 10.1699 66.5523 10.3856V13.6459C67.7902 13.6443 65.7016 13.6323 66.5523 13.6459C56.5327 13.0675 53.7692 14.2081 53.0477 14.3744C48.2141 15.4888 43.8384 19.4924 43.7815 23.3387C43.7301 26.8396 45.8538 29.0118 54.4219 34.2206C64.2923 40.2213 62.1789 50.0962 58.7109 54.0169C55.2429 57.9376 48.9723 60.1337 32.272 60.1337C19.2036 60.1337 19.0684 60.1158 19.0684 58.368C19.0684 56.5895 19.6604 56.4211 26.7542 56.182C37.7402 55.8122 42.5529 53.5116 42.5529 47.8625C42.5529 43.3399 41.2988 41.9696 31.8999 36.4996C25.3715 32.7002 23.7476 30.309 24.4935 25.5917Z" fill="url(#paint1_linear)"/>
</mask>
<g mask="url(#mask1)">
<path fill-rule="evenodd" clip-rule="evenodd" d="M24.4935 25.5917C25.7718 17.5039 35.2727 10.8671 46.5916 10.1555C48.6483 10.0259 53.7581 9.9798 57.9467 10.0526C59.1585 10.0736 60.2083 10.0885 61.1177 10.1013C64.5371 10.1497 65.97 10.1699 66.5523 10.3856V13.6459C65.6947 13.845 64.6311 13.8279 62.8049 13.7986C61.9542 13.785 60.9378 13.7686 59.6999 13.7702C56.686 13.7744 53.63 13.9138 52.9084 14.0802C48.0748 15.1946 43.8384 19.4924 43.7815 23.3387C43.7301 26.8396 45.8538 29.0118 54.4219 34.2206C64.2923 40.2213 63.0672 49.2437 58.6534 54.0535C52.5417 59.7119 48.9723 60.1337 32.272 60.1337C19.2036 60.1337 19.0684 60.1158 19.0684 58.368C19.0684 56.5895 19.6604 56.4211 26.7542 56.182C37.7402 55.8122 42.5529 53.5116 42.5529 47.8625C42.5529 43.3399 41.2988 41.9696 31.8999 36.4996C25.3715 32.7002 23.7476 30.309 24.4935 25.5917Z" fill="#B6B6B6"/>
<path fill-rule="evenodd" clip-rule="evenodd" d="M39.9786 22.6192C41.2569 14.5314 49.9981 12.1641 67.4234 13.471C69.4801 13.3414 68.5694 10.8189 72.758 10.8917C73.9698 10.9127 75.0197 10.9276 75.929 10.9404C79.3484 10.9888 80.7813 11.009 81.3636 11.2248V14.485C80.506 14.6841 79.4425 14.667 77.6162 14.6377C76.7655 14.6241 75.7492 14.6077 74.5112 14.6094C71.4973 14.6135 68.4414 14.7529 67.7198 14.9193C62.8862 16.0337 58.6497 20.3315 58.5928 24.1778C58.5414 27.6787 60.6651 29.8509 69.2332 35.0597C79.1036 41.0604 77.8785 50.0828 73.4647 54.8926C67.3531 60.551 63.7837 60.9728 47.0834 60.9728C34.0149 60.9728 17.3257 61.8314 17.3257 60.0836C17.3257 58.3051 22.9889 60.9549 39.5429 59.2123C52.1762 58.7767 57.3642 54.3507 57.3642 48.7016C57.3642 44.179 57.2188 39.8513 47.8199 34.3813C41.2915 30.5819 39.2327 27.3365 39.9786 22.6192Z" fill="#C8C8C8"/>
<path fill-rule="evenodd" clip-rule="evenodd" d="M40.8496 22.6515C42.128 14.5636 50.8692 12.1963 68.2945 13.5032C70.3512 13.3736 69.4405 10.8511 73.6291 10.9239C74.8409 10.9449 75.8908 10.9598 76.8001 10.9726C80.2195 11.0211 81.6524 11.0413 82.2347 11.257V14.5173C81.3771 14.7163 80.3135 14.6993 78.4873 14.6699C77.6366 14.6563 76.6203 14.6399 75.3823 14.6416C72.3684 14.6458 69.3124 14.7852 68.5909 14.9515C63.7573 16.0659 59.5208 20.3637 59.4639 24.2101C59.4125 27.7109 61.5362 29.8831 70.1043 35.0919C79.9747 41.0927 78.7496 50.115 74.3358 54.9248C68.2242 60.5833 64.6548 61.005 47.9545 61.005C34.886 61.005 18.1968 61.8636 18.1968 60.1158C18.1968 58.3373 23.86 60.9871 40.414 59.2446C53.0473 58.8089 58.2353 54.3829 58.2353 48.7338C58.2353 44.2112 58.0899 39.8835 48.691 34.4135C42.1626 30.6141 40.1038 27.3687 40.8496 22.6515Z" fill="#898487"/>
</g>
<mask id="path-9-inside-1" fill="white">
<path d="M86.9534 14.3781C86.915 13.4773 86.6467 12.2313 85.1324 11.2921C84.5382 10.9279 83.3114 10.3721 80.8579 10.3721C79.497 10.3721 77.4461 10.5637 76.066 12.0013C75.4143 12.6722 74.7242 13.8414 74.7242 15.7007C74.7242 17.6558 75.4909 18.7676 76.0468 19.3426C77.4077 20.7227 79.382 20.8377 80.8579 20.8377C83.1197 20.8377 84.7107 20.7611 85.8608 19.5535C86.4934 18.9018 86.9534 17.8859 86.9725 16.7166H83.1581C83.1581 17.3492 82.8706 17.79 82.583 18.02C82.1805 18.3267 81.6438 18.3842 81.1646 18.3842C80.5704 18.3842 79.9954 18.3268 79.497 17.8284C78.8645 17.1959 78.7878 16.2374 78.7878 15.6816C78.7878 14.819 78.9987 13.8989 79.5354 13.3814C80.0529 12.8831 80.7621 12.8256 81.203 12.8256C81.5671 12.8256 82.1038 12.8831 82.5447 13.1898C83.0814 13.5732 83.1581 14.0715 83.1581 14.3781H86.9534ZM93.3511 16.755V10.7363H89.3642V20.4735H93.5236L97.9897 14.4356V20.4735H101.977V10.7363H97.8172L93.3511 16.755ZM116.602 14.3781C116.564 13.4773 116.296 12.2313 114.782 11.2921C114.187 10.9279 112.961 10.3721 110.507 10.3721C109.146 10.3721 107.095 10.5637 105.715 12.0013C105.063 12.6722 104.373 13.8414 104.373 15.7007C104.373 17.6558 105.14 18.7676 105.696 19.3426C107.057 20.7227 109.031 20.8377 110.507 20.8377C112.769 20.8377 114.36 20.7611 115.51 19.5535C116.142 18.9018 116.602 17.8859 116.622 16.7166H112.807C112.807 17.3492 112.52 17.79 112.232 18.02C111.83 18.3267 111.293 18.3842 110.814 18.3842C110.22 18.3842 109.645 18.3268 109.146 17.8284C108.514 17.1959 108.437 16.2374 108.437 15.6816C108.437 14.819 108.648 13.8989 109.185 13.3814C109.702 12.8831 110.411 12.8256 110.852 12.8256C111.216 12.8256 111.753 12.8831 112.194 13.1898C112.731 13.5732 112.807 14.0715 112.807 14.3781H116.602ZM121.256 13.3048V20.4735H125.319V13.3048H128.827V10.7363H117.767V13.3048H121.256ZM134.235 14.4931C134.312 13.9373 134.618 13.4198 135.002 13.1131C135.366 12.8256 135.941 12.6722 136.612 12.6722C136.919 12.6722 137.743 12.6914 138.28 13.1131C138.605 13.3622 138.931 13.8414 138.97 14.4931H134.235ZM138.912 17.2917C138.835 17.675 138.663 18.02 138.126 18.25C137.743 18.4226 137.283 18.461 136.689 18.461C136.133 18.461 135.347 18.3842 134.829 17.905C134.446 17.5408 134.197 16.9275 134.197 16.3908V16.3333H143.014V16.1225C143.014 14.7041 142.899 13.2856 141.672 12.0397C140.254 10.6021 138.069 10.3721 136.401 10.3721C134.753 10.3721 132.855 10.583 131.475 11.9056C130.689 12.6723 129.98 13.9373 129.98 15.7391C129.98 17.56 130.708 18.6527 131.379 19.3044C132.913 20.7994 135.098 20.8377 136.669 20.8377C138.26 20.8377 139.353 20.7611 140.273 20.4544C141.73 19.9561 142.726 18.8442 142.88 17.2917H138.912ZM151.808 20.4735H154.223L156.81 14.1481H156.983L156.868 15.2408V20.4735H160.625V10.7363H155.603L153.015 17.1191L150.408 10.7363H145.406V20.4735H149.163V15.2408L149.047 14.1481H149.22L151.808 20.4735ZM167.56 16.1607H169.419C169.822 16.1607 170.167 16.1992 170.454 16.3525C170.819 16.5442 170.934 16.8317 170.934 17.1959C170.934 17.6943 170.704 17.9434 170.589 18.0392C170.493 18.1159 170.186 18.3267 169.439 18.3267H167.56V16.1607ZM167.56 10.7363H163.497V20.4735H170.627C171.758 20.4735 173.195 20.3202 174 19.5726C174.499 19.1126 174.882 18.2693 174.882 17.2151C174.882 16.1608 174.48 15.4707 174.116 15.0874C173.272 14.2056 171.873 14.0906 170.646 14.0906H167.56V10.7363ZM175.936 10.7363V20.4735H180V10.7363H175.936ZM74.9623 39.8066C75.5276 39.9951 75.9359 40.0265 76.4539 40.0265C77.1292 40.0265 77.82 39.9794 78.448 39.367C78.8563 38.9745 79.1703 38.3935 79.5628 37.4357L83.0641 29.0515H80.866L78.7935 34.7509L76.4226 29.0515H74.0674L77.5374 36.6194L77.3332 37.2317C77.2077 37.6085 76.9721 38.0481 76.7209 38.2365C76.5482 38.3778 76.2499 38.4878 75.7631 38.4878C75.4805 38.4878 75.2136 38.4407 74.9623 38.3465V39.8066ZM86.4724 30.5273H90.4925V37.0275H92.7691V29.0515H84.1958V37.0275H86.4724V30.5273ZM99.7313 30.2603C100.186 30.2603 100.971 30.3232 101.568 30.9669C102.149 31.5949 102.243 32.4271 102.243 32.9924C102.243 33.6047 102.149 34.4526 101.568 35.0964C101.018 35.7245 100.375 35.8186 99.7941 35.8186C99.2286 35.8186 98.5377 35.7245 97.9723 35.1435C97.7213 34.8922 97.25 34.2485 97.25 33.0395C97.25 32.0503 97.6116 31.3124 98.0507 30.8885C98.5848 30.3704 99.2757 30.2603 99.7313 30.2603ZM95.0361 29.0515V39.9323H97.3127V36.0697C97.6743 36.5565 98.0986 36.8234 98.4122 36.9647C98.9934 37.2317 99.7 37.2946 100.469 37.2946C101.411 37.2946 102.573 37.1846 103.515 36.2583C104.238 35.5517 104.677 34.484 104.677 32.961C104.677 32.0347 104.504 30.7471 103.531 29.8207C102.62 28.9572 101.364 28.7845 100.391 28.7845C99.7784 28.7845 99.0718 28.8472 98.3966 29.177C97.9879 29.3811 97.5959 29.6795 97.2657 30.1191H97.2186V29.0515H95.0361ZM112.332 33.2592C112.332 34.0915 112.128 34.8137 111.484 35.3162C110.934 35.7401 110.306 35.8029 109.803 35.8029C109.474 35.8029 109.002 35.7714 108.657 35.5046C108.407 35.3161 108.28 35.0649 108.28 34.7666C108.28 34.4368 108.391 34.1542 108.704 33.9501C109.018 33.746 109.458 33.6832 109.977 33.6361L110.699 33.5734C111.06 33.542 111.405 33.5106 111.782 33.4164C111.986 33.3693 112.143 33.322 112.332 33.165V33.2592ZM108.407 31.5164C108.391 30.9669 108.673 30.6529 108.987 30.4802C109.018 30.4645 109.474 30.2134 110.384 30.2134C110.777 30.2134 111.327 30.2761 111.735 30.4646C112.128 30.653 112.332 30.9041 112.332 31.3437C112.332 31.5008 112.3 31.7049 112.128 31.8619C111.892 32.0817 111.421 32.176 110.431 32.2702L109.803 32.3329C109.27 32.38 108.72 32.4115 108.076 32.5371C107.479 32.6627 106.946 32.8354 106.506 33.2907C106.114 33.6989 105.925 34.1857 105.925 34.798C105.925 35.7558 106.381 36.321 106.804 36.635C107.527 37.1688 108.595 37.2161 109.239 37.2161C110.463 37.2161 111.091 36.9962 111.216 36.9491C111.405 36.8863 112.001 36.6351 112.551 36.0385C112.598 36.2897 112.739 36.6193 113.164 36.8548C113.524 37.0589 113.949 37.0747 114.389 37.0747C114.796 37.0747 115.064 37.0589 115.44 36.9804V35.5674C115.362 35.5988 115.268 35.6145 115.158 35.6145C115.064 35.6145 114.875 35.5988 114.749 35.4418C114.608 35.2691 114.608 34.9393 114.608 34.641V31.5636C114.608 31.0297 114.53 30.2918 113.933 29.7108C113.132 28.9257 111.437 28.7374 110.416 28.7374C109.317 28.7374 107.7 28.9101 106.868 29.6952C106.506 30.0406 106.114 30.6372 106.146 31.5164H108.407ZM119.347 33.5105H121.42C122.315 33.5105 122.66 33.6833 122.785 33.7461C123.131 33.9345 123.288 34.2328 123.288 34.6096C123.288 35.1905 122.943 35.4731 122.722 35.5831C122.518 35.6929 122.173 35.7714 121.404 35.7714H119.347V33.5105ZM119.347 30.3075H121.34C122.078 30.3075 122.362 30.4173 122.487 30.4802C122.707 30.5901 122.958 30.81 122.958 31.2497C122.958 31.6892 122.707 31.9561 122.503 32.0817C122.393 32.1445 122.094 32.2858 121.215 32.2858H119.347V30.3075ZM117.07 29.0515V37.0275H122.299C123.366 37.0275 124.434 36.9647 125.077 36.321C125.313 36.0854 125.643 35.6302 125.643 34.8295C125.643 34.4055 125.549 33.8874 125.109 33.4791C124.764 33.1494 124.151 32.9295 123.649 32.8667V32.804C124.026 32.7413 124.481 32.537 124.764 32.2544C124.999 32.0189 125.251 31.6264 125.251 30.9983C125.251 30.119 124.811 29.648 124.403 29.4125C123.869 29.0985 123.131 29.0515 122.22 29.0515H117.07ZM126.555 37.0118C126.916 37.0747 127.214 37.106 127.544 37.106C128.219 37.106 128.926 37.0118 129.491 36.4466C130.057 35.8971 130.229 35.0964 130.323 34.4055C130.449 33.4164 130.464 32.3173 130.464 31.9405V30.5273H133.479V37.0275H135.755V29.0515H128.392V31.548C128.392 32.3643 128.392 32.851 128.313 33.7774C128.266 34.2955 128.188 34.8452 127.811 35.222C127.638 35.379 127.371 35.5359 126.995 35.5359C126.806 35.5359 126.618 35.4889 126.555 35.4732V37.0118ZM139.946 32.2544C140.009 31.5793 140.339 31.0455 140.716 30.7315C141.171 30.3547 141.815 30.1976 142.442 30.1976C143.133 30.1976 143.871 30.386 144.311 30.7785C144.656 31.0768 144.939 31.6106 144.955 32.2544H139.946ZM144.877 34.5312C144.814 34.8765 144.641 35.3161 144.107 35.5831C143.683 35.8029 142.992 35.8499 142.553 35.8499C142.239 35.8499 141.375 35.8186 140.81 35.4418C140.261 35.0807 139.899 34.3426 139.931 33.5105H147.31V33.3378C147.31 32.4428 147.326 31.0612 146.227 29.9778C145.081 28.8473 143.307 28.753 142.427 28.753C141.485 28.753 139.868 28.8472 138.737 29.962C138.11 30.5743 137.56 31.5636 137.56 33.165C137.56 34.6723 138.094 35.6459 138.69 36.2112C139.742 37.2003 141.328 37.3258 142.522 37.3258C144.107 37.3258 144.845 37.1532 145.269 36.9962C146.368 36.6037 147.059 35.693 147.185 34.5312H144.877ZM151.393 33.5734H155.57V37.0275H157.846V29.0515H155.57V32.0975H151.393V29.0515H149.116V37.0275H151.393V33.5734ZM162.387 34.8295V29.0515H160.11V37.0275H162.512L166.955 31.2339V37.0275H169.232V29.0515H166.83L162.387 34.8295ZM177.265 30.3704V32.804H175.287C174.565 32.804 173.968 32.6784 173.685 32.3643C173.528 32.1917 173.418 31.9248 173.418 31.595C173.418 31.2967 173.497 31.0297 173.701 30.7942C174.062 30.4016 174.612 30.3704 175.303 30.3704H177.265ZM175.554 34.1228H177.265V37.0275H179.542V29.0515H174.581C173.796 29.0515 172.853 29.13 172.194 29.5853C171.676 29.9464 171.205 30.5587 171.205 31.6422C171.205 32.5057 171.503 33.008 171.786 33.2907C172.162 33.6518 172.869 33.903 173.45 33.9501L170.938 37.0275H173.466L175.554 34.1228Z"/>
</mask>
<path d="M86.9534 14.3781C86.915 13.4773 86.6467 12.2313 85.1324 11.2921C84.5382 10.9279 83.3114 10.3721 80.8579 10.3721C79.497 10.3721 77.4461 10.5637 76.066 12.0013C75.4143 12.6722 74.7242 13.8414 74.7242 15.7007C74.7242 17.6558 75.4909 18.7676 76.0468 19.3426C77.4077 20.7227 79.382 20.8377 80.8579 20.8377C83.1197 20.8377 84.7107 20.7611 85.8608 19.5535C86.4934 18.9018 86.9534 17.8859 86.9725 16.7166H83.1581C83.1581 17.3492 82.8706 17.79 82.583 18.02C82.1805 18.3267 81.6438 18.3842 81.1646 18.3842C80.5704 18.3842 79.9954 18.3268 79.497 17.8284C78.8645 17.1959 78.7878 16.2374 78.7878 15.6816C78.7878 14.819 78.9987 13.8989 79.5354 13.3814C80.0529 12.8831 80.7621 12.8256 81.203 12.8256C81.5671 12.8256 82.1038 12.8831 82.5447 13.1898C83.0814 13.5732 83.1581 14.0715 83.1581 14.3781H86.9534ZM93.3511 16.755V10.7363H89.3642V20.4735H93.5236L97.9897 14.4356V20.4735H101.977V10.7363H97.8172L93.3511 16.755ZM116.602 14.3781C116.564 13.4773 116.296 12.2313 114.782 11.2921C114.187 10.9279 112.961 10.3721 110.507 10.3721C109.146 10.3721 107.095 10.5637 105.715 12.0013C105.063 12.6722 104.373 13.8414 104.373 15.7007C104.373 17.6558 105.14 18.7676 105.696 19.3426C107.057 20.7227 109.031 20.8377 110.507 20.8377C112.769 20.8377 114.36 20.7611 115.51 19.5535C116.142 18.9018 116.602 17.8859 116.622 16.7166H112.807C112.807 17.3492 112.52 17.79 112.232 18.02C111.83 18.3267 111.293 18.3842 110.814 18.3842C110.22 18.3842 109.645 18.3268 109.146 17.8284C108.514 17.1959 108.437 16.2374 108.437 15.6816C108.437 14.819 108.648 13.8989 109.185 13.3814C109.702 12.8831 110.411 12.8256 110.852 12.8256C111.216 12.8256 111.753 12.8831 112.194 13.1898C112.731 13.5732 112.807 14.0715 112.807 14.3781H116.602ZM121.256 13.3048V20.4735H125.319V13.3048H128.827V10.7363H117.767V13.3048H121.256ZM134.235 14.4931C134.312 13.9373 134.618 13.4198 135.002 13.1131C135.366 12.8256 135.941 12.6722 136.612 12.6722C136.919 12.6722 137.743 12.6914 138.28 13.1131C138.605 13.3622 138.931 13.8414 138.97 14.4931H134.235ZM138.912 17.2917C138.835 17.675 138.663 18.02 138.126 18.25C137.743 18.4226 137.283 18.461 136.689 18.461C136.133 18.461 135.347 18.3842 134.829 17.905C134.446 17.5408 134.197 16.9275 134.197 16.3908V16.3333H143.014V16.1225C143.014 14.7041 142.899 13.2856 141.672 12.0397C140.254 10.6021 138.069 10.3721 136.401 10.3721C134.753 10.3721 132.855 10.583 131.475 11.9056C130.689 12.6723 129.98 13.9373 129.98 15.7391C129.98 17.56 130.708 18.6527 131.379 19.3044C132.913 20.7994 135.098 20.8377 136.669 20.8377C138.26 20.8377 139.353 20.7611 140.273 20.4544C141.73 19.9561 142.726 18.8442 142.88 17.2917H138.912ZM151.808 20.4735H154.223L156.81 14.1481H156.983L156.868 15.2408V20.4735H160.625V10.7363H155.603L153.015 17.1191L150.408 10.7363H145.406V20.4735H149.163V15.2408L149.047 14.1481H149.22L151.808 20.4735ZM167.56 16.1607H169.419C169.822 16.1607 170.167 16.1992 170.454 16.3525C170.819 16.5442 170.934 16.8317 170.934 17.1959C170.934 17.6943 170.704 17.9434 170.589 18.0392C170.493 18.1159 170.186 18.3267 169.439 18.3267H167.56V16.1607ZM167.56 10.7363H163.497V20.4735H170.627C171.758 20.4735 173.195 20.3202 174 19.5726C174.499 19.1126 174.882 18.2693 174.882 17.2151C174.882 16.1608 174.48 15.4707 174.116 15.0874C173.272 14.2056 171.873 14.0906 170.646 14.0906H167.56V10.7363ZM175.936 10.7363V20.4735H180V10.7363H175.936ZM74.9623 39.8066C75.5276 39.9951 75.9359 40.0265 76.4539 40.0265C77.1292 40.0265 77.82 39.9794 78.448 39.367C78.8563 38.9745 79.1703 38.3935 79.5628 37.4357L83.0641 29.0515H80.866L78.7935 34.7509L76.4226 29.0515H74.0674L77.5374 36.6194L77.3332 37.2317C77.2077 37.6085 76.9721 38.0481 76.7209 38.2365C76.5482 38.3778 76.2499 38.4878 75.7631 38.4878C75.4805 38.4878 75.2136 38.4407 74.9623 38.3465V39.8066ZM86.4724 30.5273H90.4925V37.0275H92.7691V29.0515H84.1958V37.0275H86.4724V30.5273ZM99.7313 30.2603C100.186 30.2603 100.971 30.3232 101.568 30.9669C102.149 31.5949 102.243 32.4271 102.243 32.9924C102.243 33.6047 102.149 34.4526 101.568 35.0964C101.018 35.7245 100.375 35.8186 99.7941 35.8186C99.2286 35.8186 98.5377 35.7245 97.9723 35.1435C97.7213 34.8922 97.25 34.2485 97.25 33.0395C97.25 32.0503 97.6116 31.3124 98.0507 30.8885C98.5848 30.3704 99.2757 30.2603 99.7313 30.2603ZM95.0361 29.0515V39.9323H97.3127V36.0697C97.6743 36.5565 98.0986 36.8234 98.4122 36.9647C98.9934 37.2317 99.7 37.2946 100.469 37.2946C101.411 37.2946 102.573 37.1846 103.515 36.2583C104.238 35.5517 104.677 34.484 104.677 32.961C104.677 32.0347 104.504 30.7471 103.531 29.8207C102.62 28.9572 101.364 28.7845 100.391 28.7845C99.7784 28.7845 99.0718 28.8472 98.3966 29.177C97.9879 29.3811 97.5959 29.6795 97.2657 30.1191H97.2186V29.0515H95.0361ZM112.332 33.2592C112.332 34.0915 112.128 34.8137 111.484 35.3162C110.934 35.7401 110.306 35.8029 109.803 35.8029C109.474 35.8029 109.002 35.7714 108.657 35.5046C108.407 35.3161 108.28 35.0649 108.28 34.7666C108.28 34.4368 108.391 34.1542 108.704 33.9501C109.018 33.746 109.458 33.6832 109.977 33.6361L110.699 33.5734C111.06 33.542 111.405 33.5106 111.782 33.4164C111.986 33.3693 112.143 33.322 112.332 33.165V33.2592ZM108.407 31.5164C108.391 30.9669 108.673 30.6529 108.987 30.4802C109.018 30.4645 109.474 30.2134 110.384 30.2134C110.777 30.2134 111.327 30.2761 111.735 30.4646C112.128 30.653 112.332 30.9041 112.332 31.3437C112.332 31.5008 112.3 31.7049 112.128 31.8619C111.892 32.0817 111.421 32.176 110.431 32.2702L109.803 32.3329C109.27 32.38 108.72 32.4115 108.076 32.5371C107.479 32.6627 106.946 32.8354 106.506 33.2907C106.114 33.6989 105.925 34.1857 105.925 34.798C105.925 35.7558 106.381 36.321 106.804 36.635C107.527 37.1688 108.595 37.2161 109.239 37.2161C110.463 37.2161 111.091 36.9962 111.216 36.9491C111.405 36.8863 112.001 36.6351 112.551 36.0385C112.598 36.2897 112.739 36.6193 113.164 36.8548C113.524 37.0589 113.949 37.0747 114.389 37.0747C114.796 37.0747 115.064 37.0589 115.44 36.9804V35.5674C115.362 35.5988 115.268 35.6145 115.158 35.6145C115.064 35.6145 114.875 35.5988 114.749 35.4418C114.608 35.2691 114.608 34.9393 114.608 34.641V31.5636C114.608 31.0297 114.53 30.2918 113.933 29.7108C113.132 28.9257 111.437 28.7374 110.416 28.7374C109.317 28.7374 107.7 28.9101 106.868 29.6952C106.506 30.0406 106.114 30.6372 106.146 31.5164H108.407ZM119.347 33.5105H121.42C122.315 33.5105 122.66 33.6833 122.785 33.7461C123.131 33.9345 123.288 34.2328 123.288 34.6096C123.288 35.1905 122.943 35.4731 122.722 35.5831C122.518 35.6929 122.173 35.7714 121.404 35.7714H119.347V33.5105ZM119.347 30.3075H121.34C122.078 30.3075 122.362 30.4173 122.487 30.4802C122.707 30.5901 122.958 30.81 122.958 31.2497C122.958 31.6892 122.707 31.9561 122.503 32.0817C122.393 32.1445 122.094 32.2858 121.215 32.2858H119.347V30.3075ZM117.07 29.0515V37.0275H122.299C123.366 37.0275 124.434 36.9647 125.077 36.321C125.313 36.0854 125.643 35.6302 125.643 34.8295C125.643 34.4055 125.549 33.8874 125.109 33.4791C124.764 33.1494 124.151 32.9295 123.649 32.8667V32.804C124.026 32.7413 124.481 32.537 124.764 32.2544C124.999 32.0189 125.251 31.6264 125.251 30.9983C125.251 30.119 124.811 29.648 124.403 29.4125C123.869 29.0985 123.131 29.0515 122.22 29.0515H117.07ZM126.555 37.0118C126.916 37.0747 127.214 37.106 127.544 37.106C128.219 37.106 128.926 37.0118 129.491 36.4466C130.057 35.8971 130.229 35.0964 130.323 34.4055C130.449 33.4164 130.464 32.3173 130.464 31.9405V30.5273H133.479V37.0275H135.755V29.0515H128.392V31.548C128.392 32.3643 128.392 32.851 128.313 33.7774C128.266 34.2955 128.188 34.8452 127.811 35.222C127.638 35.379 127.371 35.5359 126.995 35.5359C126.806 35.5359 126.618 35.4889 126.555 35.4732V37.0118ZM139.946 32.2544C140.009 31.5793 140.339 31.0455 140.716 30.7315C141.171 30.3547 141.815 30.1976 142.442 30.1976C143.133 30.1976 143.871 30.386 144.311 30.7785C144.656 31.0768 144.939 31.6106 144.955 32.2544H139.946ZM144.877 34.5312C144.814 34.8765 144.641 35.3161 144.107 35.5831C143.683 35.8029 142.992 35.8499 142.553 35.8499C142.239 35.8499 141.375 35.8186 140.81 35.4418C140.261 35.0807 139.899 34.3426 139.931 33.5105H147.31V33.3378C147.31 32.4428 147.326 31.0612 146.227 29.9778C145.081 28.8473 143.307 28.753 142.427 28.753C141.485 28.753 139.868 28.8472 138.737 29.962C138.11 30.5743 137.56 31.5636 137.56 33.165C137.56 34.6723 138.094 35.6459 138.69 36.2112C139.742 37.2003 141.328 37.3258 142.522 37.3258C144.107 37.3258 144.845 37.1532 145.269 36.9962C146.368 36.6037 147.059 35.693 147.185 34.5312H144.877ZM151.393 33.5734H155.57V37.0275H157.846V29.0515H155.57V32.0975H151.393V29.0515H149.116V37.0275H151.393V33.5734ZM162.387 34.8295V29.0515H160.11V37.0275H162.512L166.955 31.2339V37.0275H169.232V29.0515H166.83L162.387 34.8295ZM177.265 30.3704V32.804H175.287C174.565 32.804 173.968 32.6784 173.685 32.3643C173.528 32.1917 173.418 31.9248 173.418 31.595C173.418 31.2967 173.497 31.0297 173.701 30.7942C174.062 30.4016 174.612 30.3704 175.303 30.3704H177.265ZM175.554 34.1228H177.265V37.0275H179.542V29.0515H174.581C173.796 29.0515 172.853 29.13 172.194 29.5853C171.676 29.9464 171.205 30.5587 171.205 31.6422C171.205 32.5057 171.503 33.008 171.786 33.2907C172.162 33.6518 172.869 33.903 173.45 33.9501L170.938 37.0275H173.466L175.554 34.1228Z" fill="#C72D51" stroke="#941632" stroke-width="0.623127" mask="url(#path-9-inside-1)"/>
<defs>
<linearGradient id="paint0_linear" x1="39.9784" y1="-3.05151" x2="39.9784" y2="60.1151" gradientUnits="userSpaceOnUse">
<stop stop-color="#CE2E53"/>
<stop offset="0.453125" stop-color="#FF6085"/>
<stop offset="1" stop-color="#BE2C4F"/>
</linearGradient>
<linearGradient id="paint1_linear" x1="42.8103" y1="10.0181" x2="42.8103" y2="60.1337" gradientUnits="userSpaceOnUse">
<stop stop-color="#CACCD2"/>
<stop offset="1" stop-color="#A1A3B0"/>
</linearGradient>
</defs>
</svg>
