<svg xmlns="http://www.w3.org/2000/svg" viewBox="0 0 100 100" fill-rule="evenodd"><g class="t-group-origins"><path d="M40.693 90.697a11.577 11.577 0 0 1-8.243-3.418L2.443 57.277a1.444 1.444 0 0 1-.173-.209C.817 54.938-.072 52.01.005 49.611a11.587 11.587 0 0 1 3.553-8.005l.045-.046 28.848-28.848c4.542-4.542 11.939-4.543 16.486 0a11.582 11.582 0 0 1 3.416 8.245c0 3.114-1.213 6.042-3.415 8.244l-7.412 7.416H88.85c6.149 0 11.151 6.002 11.151 13.38 0 7.382-5.002 13.389-11.151 13.389H41.531l7.407 7.408c4.544 4.548 4.544 11.944 0 16.488a11.595 11.595 0 0 1-8.245 3.415zm-36.09-35.38L34.51 85.219c1.653 1.655 3.848 2.565 6.183 2.565s4.532-.911 6.186-2.565c3.409-3.408 3.409-8.957 0-12.369l-9.893-9.894a1.456 1.456 0 0 1 1.029-2.486h50.834c4.543 0 8.239-4.7 8.239-10.476 0-5.772-3.696-10.468-8.239-10.468H38.011a1.456 1.456 0 0 1-1.03-2.486l9.897-9.902c1.653-1.652 2.562-3.849 2.562-6.185s-.91-4.532-2.562-6.185c-3.411-3.408-8.96-3.408-12.368 0L5.725 43.552a1.138 1.138 0 0 1-.09.094 8.689 8.689 0 0 0-2.72 6.054c-.055 1.757.62 3.996 1.688 5.617z" stroke-width="0.5" stroke="#ffffff" fill="#ffffff" stroke-width-old="0"></path></g></svg>
